<svg width="16" height="16" viewBox="0 0 16 16" fill="none" xmlns="http://www.w3.org/2000/svg">
<path fill-rule="evenodd" clip-rule="evenodd" d="M12.6667 16H3.33334C2.59734 16 2 15.4027 2 14.6667V3.33333H1.33334V2H5.33334V1C5.33334 0.448667 5.782 0 6.33334 0H9.66667C10.2167 0 10.6667 0.447333 10.6667 1V2H14.6667V3.33333H14V14.6667C14 15.4027 13.4027 16 12.6667 16ZM3.33334 14.3333C3.33334 14.5173 3.48267 14.6667 3.66667 14.6667H12.3333C12.5173 14.6667 12.6667 14.5173 12.6667 14.3333V3.33333H3.33334V14.3333ZM6.66667 2H9.33334V1.33333H6.66667V2Z" fill="#F35456"/>
</svg>
